# Blender v2.76 (sub 0) OBJ File: 'head.blend'
# www.blender.org
mtllib head.mtl
o head_Cube.001
v -0.763889 0.468924 0.326389
v -0.763889 -0.183854 -0.326389
v -0.763889 -0.183854 0.326389
v -0.326389 0.468924 -0.763889
v 0.326389 0.468924 -0.763889
v 0.326389 -0.183854 -0.763889
v -0.326389 -0.183854 -0.763889
v 0.763889 0.468924 0.326389
v 0.763889 -0.183854 0.326389
v 0.763889 -0.183854 -0.326389
v 0.326389 0.468924 0.722929
v -0.326389 0.468924 0.722929
v -0.326389 -0.183854 0.722929
v 0.326389 -0.183854 0.722929
v -0.326389 -0.621354 0.326389
v -0.326389 -0.621354 -0.326389
v 0.326389 -0.621354 -0.326389
v 0.326389 -0.621354 0.326389
v 0.326389 0.906424 0.326389
v 0.326389 0.906424 -0.326389
v -0.326389 0.906424 -0.326389
v -0.326389 0.906424 0.326389
v -1.126741 0.662200 -0.482075
v 1.155914 0.673869 -0.493745
v -1.039088 0.606587 -0.128774
v -0.851542 0.841020 -0.363207
v -0.851542 0.524536 -0.679690
v -1.039088 0.290104 -0.445258
v 1.053674 0.295938 -0.451092
v 0.866129 0.530371 -0.685525
v 0.866129 0.846855 -0.369041
v 1.053674 0.612422 -0.134609
v -0.888244 0.527645 0.049404
v -0.888244 0.097830 -0.380412
v -0.819444 -0.208159 0.000000
v -0.819444 0.142535 0.350694
v 0.000000 0.493229 -0.819444
v 0.350694 0.142535 -0.819444
v 0.000000 -0.208159 -0.819444
v -0.350694 0.142535 -0.819444
v 0.891891 0.529104 0.047945
v 0.819444 0.142535 0.350694
v 0.819444 -0.208159 0.000000
v 0.891891 0.099289 -0.381870
v 0.000000 0.493229 0.758005
v -0.350694 0.142535 0.758005
v 0.000000 -0.208159 0.758005
v 0.350694 0.142535 0.758005
v -0.350694 -0.676909 0.000000
v 0.000000 -0.676909 -0.350694
v 0.350694 -0.676909 0.000000
v 0.000000 -0.676909 0.350694
v 0.350694 0.961979 0.000000
v 0.000000 0.961979 -0.350694
v -0.350694 0.961979 0.000000
v 0.000000 0.961979 0.350694
v -0.598958 -0.159548 0.588718
v -0.598958 0.444618 0.588718
v -0.598958 0.741493 0.302083
v -0.620872 0.834517 -0.311288
v -0.620872 0.458521 -0.687284
v -0.598958 -0.159548 -0.598958
v -0.598958 -0.456423 -0.302083
v -0.598958 -0.456423 0.302083
v -0.302083 0.741493 -0.598958
v 0.302083 0.741493 -0.598958
v 0.624518 0.459980 -0.688742
v 0.598958 -0.159548 -0.598958
v 0.302083 -0.456423 -0.598958
v -0.302083 -0.456423 -0.598958
v 0.624518 0.835976 -0.312746
v 0.598958 0.741493 0.302083
v 0.598958 0.444618 0.588718
v 0.598958 -0.159548 0.588718
v 0.598958 -0.456423 0.302083
v 0.598958 -0.456423 -0.302083
v 0.302083 0.741493 0.588718
v -0.302083 0.741493 0.588718
v -0.302083 -0.456423 0.588718
v 0.302083 -0.456423 0.588718
v -1.143045 0.665017 -0.281487
v -1.019724 0.819168 -0.435638
v -1.019724 0.611064 -0.643743
v -1.143045 0.456912 -0.489591
v 1.168572 0.467123 -0.499802
v 1.045250 0.621274 -0.653953
v 1.045250 0.829379 -0.445849
v 1.168572 0.675227 -0.291697
v -0.939454 0.823437 -0.187382
v -1.091835 0.369225 -0.207895
v -0.810516 0.720873 -0.559544
v -0.939454 0.348712 -0.662108
v 0.954041 0.354546 -0.667942
v 1.106422 0.375059 -0.213730
v 0.825103 0.726708 -0.565378
v 0.954041 0.829272 -0.193217
v -0.946360 0.165750 -0.020208
v 0.000000 0.142535 -0.878472
v 0.948694 0.166683 -0.021141
v 0.000000 0.142535 0.786313
v 0.000000 -0.735937 0.000000
v 0.000000 1.021007 0.000000
v -0.643229 0.142535 0.627869
v -0.711424 0.830090 -0.016926
v -0.711424 0.162468 -0.684548
v -0.643229 -0.500694 0.000000
v 0.000000 0.785764 -0.643229
v 0.713758 0.163401 -0.685482
v 0.000000 -0.500694 -0.643229
v 0.713758 0.831024 -0.017859
v 0.643229 0.142535 0.627869
v 0.643229 -0.500694 0.000000
v 0.000000 0.785764 0.627869
v 0.000000 -0.500694 0.627869
v -0.509259 -0.366724 0.504708
v -0.509259 0.651794 0.504708
v -0.509259 -0.366724 -0.509259
v -0.580233 0.692068 -0.544834
v 0.509259 -0.366724 0.504708
v 0.509259 0.651794 0.504708
v 0.509259 -0.366724 -0.509259
v 0.583880 0.693526 -0.546293
v -1.145198 0.489525 -0.317754
v -1.043502 0.791187 -0.293775
v -0.952226 0.730741 -0.558970
v -1.043502 0.465546 -0.619416
v 1.167889 0.498601 -0.326830
v 1.066193 0.474622 -0.628492
v 0.974916 0.739817 -0.568046
v 1.066193 0.800263 -0.302851
vt 0.520371 0.383515
vt 0.450802 0.410544
vt 0.428154 0.306920
vt 0.507202 0.305667
vt 0.580591 0.304505
vt 0.586303 0.363741
vt 0.595271 0.409771
vt 0.558800 0.447416
vt 0.509696 0.498101
vt 0.129341 0.847193
vt 0.081451 0.900462
vt 0.020552 0.841647
vt 0.087106 0.789354
vt 0.140523 0.733926
vt 0.181076 0.806833
vt 0.201348 0.850557
vt 0.177858 0.892982
vt 0.147790 0.949220
vt 0.447509 0.202631
vt 0.503599 0.113251
vt 0.554285 0.162356
vt 0.517898 0.227442
vt 0.591929 0.198827
vt 0.584424 0.245117
vt 0.234528 0.668710
vt 0.301413 0.666317
vt 0.302611 0.729511
vt 0.232823 0.731804
vt 0.167664 0.672228
vt 0.171827 0.608245
vt 0.235979 0.603419
vt 0.300164 0.600397
vt 0.368341 0.666174
vt 0.372435 0.729158
vt 0.364418 0.600985
vt 0.428707 0.603378
vt 0.435290 0.667156
vt 0.464750 0.727781
vt 0.367055 0.789892
vt 0.303774 0.790873
vt 0.426988 0.802173
vt 0.408387 0.846633
vt 0.363546 0.850253
vt 0.304953 0.853090
vt 0.240501 0.792290
vt 0.246294 0.852475
vt 0.880246 0.377814
vt 0.890943 0.299588
vt 0.969991 0.298336
vt 0.950636 0.402626
vt 0.894545 0.492005
vt 0.843860 0.442900
vt 0.806215 0.406429
vt 0.813721 0.360138
vt 0.817554 0.300751
vt 0.947342 0.194712
vt 0.811841 0.241515
vt 0.877774 0.221741
vt 0.802873 0.195485
vt 0.839344 0.157840
vt 0.888449 0.107155
vt 0.480215 0.840544
vt 0.520228 0.781146
vt 0.588716 0.830880
vt 0.530089 0.891960
vt 0.465645 0.943197
vt 0.433467 0.888138
vt 0.754923 0.356736
vt 0.699966 0.359039
vt 0.699072 0.302628
vt 0.755483 0.301734
vt 0.760185 0.415397
vt 0.700949 0.421109
vt 0.644964 0.358478
vt 0.642661 0.303522
vt 0.641562 0.417276
vt 0.643222 0.248520
vt 0.698179 0.246217
vt 0.637959 0.189859
vt 0.697195 0.184146
vt 0.753181 0.246778
vt 0.756583 0.187980
vt 0.618186 0.123926
vt 0.591157 0.054358
vt 0.694781 0.031709
vt 0.696033 0.110758
vt 0.238939 0.914668
vt 0.306199 0.918849
vt 0.307479 0.986377
vt 0.225010 0.977864
vt 0.373252 0.912122
vt 0.389566 0.974745
vt 0.774258 0.121454
vt 0.799070 0.051064
vt 0.779959 0.481330
vt 0.806988 0.550898
vt 0.703364 0.573547
vt 0.702112 0.494498
vt 0.370312 0.533637
vt 0.298846 0.530855
vt 0.297494 0.459503
vt 0.381114 0.465209
vt 0.464873 0.478205
vt 0.441856 0.540553
vt 0.227537 0.536342
vt 0.214150 0.468373
vt 0.156307 0.545964
vt 0.130945 0.484533
vt 0.623887 0.483802
vt 0.599075 0.554192
vt 0.815252 0.808321
vt 0.779228 0.811457
vt 0.777730 0.774570
vt 0.812645 0.771444
vt 0.849814 0.772550
vt 0.851409 0.805529
vt 0.850117 0.840381
vt 0.817992 0.845542
vt 0.783822 0.847006
vt 0.208229 0.202663
vt 0.172300 0.200212
vt 0.174722 0.165462
vt 0.211260 0.167524
vt 0.246565 0.171523
vt 0.244566 0.205462
vt 0.240290 0.237522
vt 0.205606 0.238150
vt 0.172790 0.237381
vt 0.816512 0.674539
vt 0.923516 0.707437
vt 0.880010 0.745975
vt 0.813671 0.725307
vt 0.748256 0.746489
vt 0.709145 0.709219
vt 0.952341 0.806131
vt 0.912888 0.906608
vt 0.876270 0.866346
vt 0.899013 0.805211
vt 0.815060 0.944852
vt 0.717596 0.915518
vt 0.757541 0.877223
vt 0.817368 0.892710
vt 0.679232 0.813260
vt 0.732025 0.812805
vt 0.213153 0.063352
vt 0.318204 0.102804
vt 0.277543 0.144586
vt 0.212624 0.118827
vt 0.145915 0.135334
vt 0.106456 0.094250
vt 0.293540 0.205086
vt 0.348832 0.203124
vt 0.309974 0.303908
vt 0.267290 0.264722
vt 0.206569 0.344753
vt 0.104810 0.315248
vt 0.145433 0.268790
vt 0.205467 0.287889
vt 0.070891 0.204981
vt 0.124550 0.201630
vn -0.822800 0.319700 0.469900
vn -0.785100 0.263200 0.560600
vn -0.942200 -0.238100 0.235600
vn -0.907500 -0.019700 0.419500
vn -0.656400 0.000000 0.754400
vn -0.627000 0.330100 0.705600
vn -0.561900 0.561900 0.607000
vn -0.603000 0.666000 0.439100
vn -0.446600 0.840500 0.306600
vn -0.827500 -0.459000 -0.323300
vn -0.912100 -0.409400 0.019000
vn -0.798900 -0.536600 -0.271500
vn -0.471400 -0.285100 -0.834600
vn -0.607300 -0.431100 -0.667300
vn -0.577300 -0.577300 -0.577300
vn -0.662900 -0.662900 -0.347900
vn -0.707100 -0.707100 0.000000
vn -0.661800 -0.661800 0.352100
vn -0.867900 -0.347200 0.355200
vn -0.561900 -0.561900 0.607000
vn -0.627000 -0.330100 0.705600
vn -0.214300 0.352200 -0.911000
vn 0.000000 0.351900 -0.936000
vn 0.000000 0.000000 -1.000000
vn -0.275000 -0.038300 -0.960700
vn -0.141300 0.289200 -0.946800
vn -0.077100 0.703500 -0.706400
vn -0.222100 0.689000 -0.689900
vn 0.000000 0.707100 -0.707100
vn 0.210000 0.352100 -0.912100
vn 0.273000 -0.039400 -0.961200
vn 0.217600 0.689700 -0.690600
vn 0.062800 0.704300 -0.707100
vn 0.128300 0.286100 -0.949600
vn 0.462800 -0.293000 -0.836600
vn 0.346500 -0.346500 -0.871700
vn 0.000000 -0.351900 -0.936000
vn 0.605400 -0.433300 -0.667600
vn 0.577300 -0.577300 -0.577300
vn 0.347900 -0.662900 -0.662900
vn 0.000000 -0.707100 -0.707100
vn -0.346500 -0.346500 -0.871700
vn -0.347900 -0.662900 -0.662900
vn 0.821100 0.318600 0.473600
vn 0.906800 -0.020400 0.421100
vn 0.938100 -0.246200 0.243700
vn 0.777100 0.260000 0.573200
vn 0.438400 0.842100 0.314000
vn 0.601100 0.666200 0.441300
vn 0.561900 0.561900 0.607000
vn 0.627000 0.330100 0.705600
vn 0.656400 0.000000 0.754400
vn 0.911400 -0.411000 0.019700
vn 0.627000 -0.330100 0.705600
vn 0.867900 -0.347200 0.355200
vn 0.561900 -0.561900 0.607000
vn 0.661800 -0.661800 0.352100
vn 0.707100 -0.707100 0.000000
vn 0.825800 -0.462700 -0.322300
vn 0.790900 -0.550000 -0.268200
vn 0.662900 -0.662900 -0.347900
vn 0.285700 0.285700 0.914700
vn 0.000000 0.263500 0.964700
vn 0.000000 0.000000 1.000000
vn 0.263500 0.000000 0.964700
vn 0.330100 0.627000 0.705600
vn 0.000000 0.656400 0.754400
vn -0.285700 0.285700 0.914700
vn -0.263500 0.000000 0.964700
vn -0.330100 0.627000 0.705600
vn -0.285700 -0.285700 0.914700
vn 0.000000 -0.263500 0.964700
vn -0.330100 -0.627000 0.705600
vn 0.000000 -0.656400 0.754400
vn 0.285700 -0.285700 0.914700
vn 0.330100 -0.627000 0.705600
vn -0.345300 -0.869400 0.353300
vn -0.351900 -0.936000 0.000000
vn 0.000000 -1.000000 0.000000
vn 0.000000 -0.932400 0.361400
vn -0.346500 -0.871700 -0.346500
vn 0.000000 -0.936000 -0.351900
vn 0.346500 -0.871700 -0.346500
vn 0.351900 -0.936000 0.000000
vn 0.345300 -0.869400 0.353300
vn 0.345300 0.869400 0.353300
vn 0.269400 0.962100 0.040900
vn 0.000000 1.000000 0.000000
vn 0.000000 0.932400 0.361400
vn 0.206000 0.912600 -0.353100
vn 0.000000 0.936000 -0.351900
vn 0.104600 0.953400 -0.282900
vn -0.210300 0.911600 -0.353300
vn -0.271400 0.961600 0.039800
vn -0.117100 0.951000 -0.286100
vn -0.345300 0.869400 0.353300
vn -0.856000 0.369800 -0.361100
vn -0.916700 -0.257100 -0.305800
vn -0.972800 -0.158100 0.169000
vn -0.904100 0.313100 0.290700
vn -0.611700 0.759000 0.223100
vn -0.407100 0.862600 -0.300200
vn -0.145000 0.703600 -0.695600
vn -0.427300 0.321600 -0.845000
vn -0.642000 -0.184600 -0.744100
vn 0.855400 0.370800 -0.361500
vn 0.898100 0.310300 0.311700
vn 0.964200 -0.182200 0.192700
vn 0.910900 -0.279300 -0.303500
vn 0.620600 -0.211900 -0.754900
vn 0.411600 0.314000 -0.855600
vn 0.113700 0.706300 -0.698700
vn 0.391800 0.872100 -0.293100
vn 0.589200 0.768400 0.249800
vn -0.421500 0.827900 0.370000
vn -0.740900 0.225600 0.632600
vn -0.909100 -0.290600 0.298200
vn 0.093300 0.704600 -0.703500
vn 0.000000 0.978700 -0.205300
vn -0.470600 -0.325200 -0.820200
vn -0.047200 0.224900 -0.973200
vn -0.770700 -0.591500 -0.236700
vn 0.449900 -0.344800 -0.823800
vn 0.755200 -0.613700 -0.230400
vn 0.897200 -0.308800 0.315800
vn 0.023600 0.218000 -0.975600
vn -0.116100 0.702700 -0.701900
vn 0.401000 0.829900 0.388000
vn -0.021700 0.979700 -0.199000
vn 0.725200 0.219200 0.652700
usemtl head.Material
s 1
f 1/1/1 33/2/2 97/3/3
f 36/4/4 103/5/5 58/6/6
f 1/1/1 58/6/6 116/7/7
f 59/8/8 104/9/9 33/2/2
f 2/10/10 35/11/11 97/12/3
f 34/13/12 105/14/13 62/15/14
f 2/10/10 62/15/14 117/16/15
f 63/17/16 106/18/17 35/11/11
f 36/4/4 97/3/3 35/19/11
f 35/19/11 106/20/17 64/21/18
f 3/22/19 64/21/18 115/23/20
f 57/24/21 103/5/5 36/4/4
f 4/25/22 37/26/23 98/27/24
f 40/28/25 105/14/13 61/29/26
f 4/25/22 61/29/26 118/30/27
f 65/31/28 107/32/29 37/26/23
f 5/33/30 38/34/31 98/27/24
f 37/26/23 107/32/29 66/35/32
f 5/33/30 66/35/32 122/36/33
f 67/37/34 108/38/35 38/34/31
f 6/39/36 39/40/37 98/27/24
f 38/34/31 108/38/35 68/41/38
f 6/39/36 68/41/38 121/42/39
f 69/43/40 109/44/41 39/40/37
f 7/45/42 40/28/25 98/27/24
f 39/40/37 109/44/41 70/46/43
f 7/45/42 70/46/43 117/16/15
f 62/15/14 105/14/13 40/28/25
f 8/47/44 42/48/45 99/49/46
f 41/50/47 110/51/48 72/52/49
f 8/47/44 72/52/49 120/53/50
f 73/54/51 111/55/52 42/48/45
f 43/56/53 99/49/46 42/48/45
f 42/48/45 111/55/52 74/57/54
f 9/58/55 74/57/54 119/59/56
f 75/60/57 112/61/58 43/56/53
f 10/62/59 44/63/60 99/64/46
f 43/65/53 112/66/58 76/67/61
f 10/62/59 76/67/61 121/42/39
f 68/41/38 108/38/35 44/63/60
f 11/68/62 45/69/63 100/70/64
f 48/71/65 111/55/52 73/54/51
f 11/68/62 73/54/51 120/53/50
f 77/72/66 113/73/67 45/69/63
f 12/74/68 46/75/69 100/70/64
f 45/69/63 113/73/67 78/76/70
f 12/74/68 78/76/70 116/7/7
f 58/6/6 103/5/5 46/75/69
f 13/77/71 47/78/72 100/70/64
f 46/75/69 103/5/5 57/24/21
f 13/77/71 57/24/21 115/23/20
f 79/79/73 114/80/74 47/78/72
f 14/81/75 48/71/65 100/70/64
f 47/78/72 114/80/74 80/82/76
f 14/81/75 80/82/76 119/59/56
f 74/57/54 111/55/52 48/71/65
f 15/83/77 49/84/78 101/85/79
f 52/86/80 114/80/74 79/79/73
f 15/83/77 79/79/73 115/23/20
f 64/21/18 106/20/17 49/84/78
f 16/87/81 50/88/82 101/89/79
f 49/90/78 106/18/17 63/17/16
f 16/87/81 63/17/16 117/16/15
f 70/46/43 109/44/41 50/88/82
f 17/91/83 51/92/84 101/89/79
f 50/88/82 109/44/41 69/43/40
f 17/91/83 69/43/40 121/42/39
f 76/67/61 112/66/58 51/92/84
f 18/93/85 52/86/80 101/85/79
f 51/94/84 112/61/58 75/60/57
f 18/93/85 75/60/57 119/59/56
f 80/82/76 114/80/74 52/86/80
f 19/95/86 53/96/87 102/97/88
f 56/98/89 113/73/67 77/72/66
f 19/95/86 77/72/66 120/53/50
f 72/52/49 110/51/48 53/96/87
f 20/99/90 54/100/91 102/101/88
f 53/102/87 110/103/48 71/104/92
f 20/99/90 71/104/92 122/36/33
f 66/35/32 107/32/29 54/100/91
f 21/105/93 55/106/94 102/101/88
f 54/100/91 107/32/29 65/31/28
f 21/105/93 65/31/28 118/30/27
f 60/107/95 104/108/9 55/106/94
f 22/109/96 56/98/89 102/97/88
f 55/110/94 104/9/9 59/8/8
f 22/109/96 59/8/8 116/7/7
f 78/76/70 113/73/67 56/98/89
f 23/111/97 84/112/98 123/113/99
f 23/111/97 81/114/100 124/115/101
f 23/111/97 82/116/102 125/117/103
f 23/111/97 83/118/104 126/119/105
f 24/120/106 88/121/107 127/122/108
f 24/120/106 85/123/109 128/124/110
f 24/120/106 86/125/111 129/126/112
f 24/120/106 87/127/113 130/128/114
f 33/129/2 104/130/9 89/131/115
f 25/132/116 89/131/115 124/115/101
f 25/132/116 81/114/100 123/113/99
f 90/133/117 97/134/3 33/129/2
f 60/135/95 118/136/27 91/137/118
f 26/138/119 91/137/118 125/117/103
f 26/138/119 82/116/102 124/115/101
f 89/131/115 104/130/9 60/135/95
f 61/139/26 105/140/13 92/141/120
f 27/142/121 92/141/120 126/119/105
f 27/142/121 83/118/104 125/117/103
f 27/142/121 91/137/118 118/136/27
f 34/143/12 97/134/3 90/133/117
f 28/144/122 90/133/117 123/113/99
f 28/144/122 84/112/98 126/119/105
f 92/141/120 105/140/13 34/143/12
f 44/145/60 108/146/35 93/147/123
f 29/148/124 93/147/123 128/124/110
f 29/148/124 85/123/109 127/122/108
f 94/149/125 99/150/46 44/145/60
f 30/151/126 67/152/34 122/153/33
f 30/151/126 95/154/127 129/126/112
f 30/151/126 86/125/111 128/124/110
f 93/147/123 108/146/35 67/152/34
f 71/155/92 110/156/48 96/157/128
f 31/158/129 96/157/128 130/128/114
f 31/158/129 87/127/113 129/126/112
f 95/154/127 122/153/33 71/155/92
f 41/159/47 99/150/46 94/149/125
f 32/160/130 94/149/125 127/122/108
f 32/160/130 88/121/107 130/128/114
f 96/157/128 110/156/48 41/159/47
f 36/4/4 1/1/1 97/3/3
f 1/1/1 36/4/4 58/6/6
f 59/8/8 1/1/1 116/7/7
f 1/1/1 59/8/8 33/2/2
f 34/13/12 2/10/10 97/12/3
f 2/10/10 34/13/12 62/15/14
f 63/17/16 2/10/10 117/16/15
f 2/10/10 63/17/16 35/11/11
f 3/22/19 36/4/4 35/19/11
f 3/22/19 35/19/11 64/21/18
f 57/24/21 3/22/19 115/23/20
f 3/22/19 57/24/21 36/4/4
f 40/28/25 4/25/22 98/27/24
f 4/25/22 40/28/25 61/29/26
f 65/31/28 4/25/22 118/30/27
f 4/25/22 65/31/28 37/26/23
f 37/26/23 5/33/30 98/27/24
f 5/33/30 37/26/23 66/35/32
f 67/37/34 5/33/30 122/36/33
f 5/33/30 67/37/34 38/34/31
f 38/34/31 6/39/36 98/27/24
f 6/39/36 38/34/31 68/41/38
f 69/43/40 6/39/36 121/42/39
f 6/39/36 69/43/40 39/40/37
f 39/40/37 7/45/42 98/27/24
f 7/45/42 39/40/37 70/46/43
f 62/15/14 7/45/42 117/16/15
f 7/45/42 62/15/14 40/28/25
f 41/50/47 8/47/44 99/49/46
f 8/47/44 41/50/47 72/52/49
f 73/54/51 8/47/44 120/53/50
f 8/47/44 73/54/51 42/48/45
f 9/58/55 43/56/53 42/48/45
f 9/58/55 42/48/45 74/57/54
f 75/60/57 9/58/55 119/59/56
f 9/58/55 75/60/57 43/56/53
f 43/65/53 10/62/59 99/64/46
f 10/62/59 43/65/53 76/67/61
f 68/41/38 10/62/59 121/42/39
f 10/62/59 68/41/38 44/63/60
f 48/71/65 11/68/62 100/70/64
f 11/68/62 48/71/65 73/54/51
f 77/72/66 11/68/62 120/53/50
f 11/68/62 77/72/66 45/69/63
f 45/69/63 12/74/68 100/70/64
f 12/74/68 45/69/63 78/76/70
f 58/6/6 12/74/68 116/7/7
f 12/74/68 58/6/6 46/75/69
f 46/75/69 13/77/71 100/70/64
f 13/77/71 46/75/69 57/24/21
f 79/79/73 13/77/71 115/23/20
f 13/77/71 79/79/73 47/78/72
f 47/78/72 14/81/75 100/70/64
f 14/81/75 47/78/72 80/82/76
f 74/57/54 14/81/75 119/59/56
f 14/81/75 74/57/54 48/71/65
f 52/86/80 15/83/77 101/85/79
f 15/83/77 52/86/80 79/79/73
f 64/21/18 15/83/77 115/23/20
f 15/83/77 64/21/18 49/84/78
f 49/90/78 16/87/81 101/89/79
f 16/87/81 49/90/78 63/17/16
f 70/46/43 16/87/81 117/16/15
f 16/87/81 70/46/43 50/88/82
f 50/88/82 17/91/83 101/89/79
f 17/91/83 50/88/82 69/43/40
f 76/67/61 17/91/83 121/42/39
f 17/91/83 76/67/61 51/92/84
f 51/94/84 18/93/85 101/85/79
f 18/93/85 51/94/84 75/60/57
f 80/82/76 18/93/85 119/59/56
f 18/93/85 80/82/76 52/86/80
f 56/98/89 19/95/86 102/97/88
f 19/95/86 56/98/89 77/72/66
f 72/52/49 19/95/86 120/53/50
f 19/95/86 72/52/49 53/96/87
f 53/102/87 20/99/90 102/101/88
f 20/99/90 53/102/87 71/104/92
f 66/35/32 20/99/90 122/36/33
f 20/99/90 66/35/32 54/100/91
f 54/100/91 21/105/93 102/101/88
f 21/105/93 54/100/91 65/31/28
f 60/107/95 21/105/93 118/30/27
f 21/105/93 60/107/95 55/106/94
f 55/110/94 22/109/96 102/97/88
f 22/109/96 55/110/94 59/8/8
f 78/76/70 22/109/96 116/7/7
f 22/109/96 78/76/70 56/98/89
f 81/114/100 23/111/97 123/113/99
f 82/116/102 23/111/97 124/115/101
f 83/118/104 23/111/97 125/117/103
f 84/112/98 23/111/97 126/119/105
f 85/123/109 24/120/106 127/122/108
f 86/125/111 24/120/106 128/124/110
f 87/127/113 24/120/106 129/126/112
f 88/121/107 24/120/106 130/128/114
f 25/132/116 33/129/2 89/131/115
f 81/114/100 25/132/116 124/115/101
f 90/133/117 25/132/116 123/113/99
f 25/132/116 90/133/117 33/129/2
f 26/138/119 60/135/95 91/137/118
f 82/116/102 26/138/119 125/117/103
f 89/131/115 26/138/119 124/115/101
f 26/138/119 89/131/115 60/135/95
f 27/142/121 61/139/26 92/141/120
f 83/118/104 27/142/121 126/119/105
f 91/137/118 27/142/121 125/117/103
f 61/139/26 27/142/121 118/136/27
f 28/144/122 34/143/12 90/133/117
f 84/112/98 28/144/122 123/113/99
f 92/141/120 28/144/122 126/119/105
f 28/144/122 92/141/120 34/143/12
f 29/148/124 44/145/60 93/147/123
f 85/123/109 29/148/124 128/124/110
f 94/149/125 29/148/124 127/122/108
f 29/148/124 94/149/125 44/145/60
f 95/154/127 30/151/126 122/153/33
f 86/125/111 30/151/126 129/126/112
f 93/147/123 30/151/126 128/124/110
f 30/151/126 93/147/123 67/152/34
f 31/158/129 71/155/92 96/157/128
f 87/127/113 31/158/129 130/128/114
f 95/154/127 31/158/129 129/126/112
f 31/158/129 95/154/127 71/155/92
f 32/160/130 41/159/47 94/149/125
f 88/121/107 32/160/130 127/122/108
f 96/157/128 32/160/130 130/128/114
f 32/160/130 96/157/128 41/159/47
